<?xml version="1.0" encoding="utf-8"?>
<!-- Generator: Adobe Illustrator 26.5.0, SVG Export Plug-In . SVG Version: 6.00 Build 0)  -->
<svg version="1.1" id="Layer_1" xmlns="http://www.w3.org/2000/svg" xmlns:xlink="http://www.w3.org/1999/xlink" x="0px" y="0px"
	 viewBox="0 0 98.1 98.1" style="enable-background:new 0 0 98.1 98.1;" xml:space="preserve">
<style type="text/css">
	.st0{clip-path:url(#SVGID_00000045584880498342248900000006877917303514737086_);fill:#40ADFF;}
	.st1{clip-path:url(#SVGID_00000021088593463233989190000002658220345424008078_);}
	.st2{fill:#FED09E;}
	.st3{fill:#287FAF;}
	.st4{fill:#88C9FF;}
	.st5{fill:#414F50;}
</style>
<g>
	<g>
		<g>
			<defs>
				<circle id="SVGID_1_" cx="49" cy="49" r="49"/>
			</defs>
			<clipPath id="SVGID_00000026846889358347596140000017990178723722080663_">
				<use xlink:href="#SVGID_1_"  style="overflow:visible;"/>
			</clipPath>
			
				<ellipse style="clip-path:url(#SVGID_00000026846889358347596140000017990178723722080663_);fill:#40ADFF;" cx="49" cy="49" rx="49" ry="49"/>
		</g>
	</g>
	<g>
		<g>
			<defs>
				<circle id="SVGID_00000061431016227587158690000010542775880260695190_" cx="49" cy="49" r="49"/>
			</defs>
			<clipPath id="SVGID_00000087373927675551099790000007937259609024366992_">
				<use xlink:href="#SVGID_00000061431016227587158690000010542775880260695190_"  style="overflow:visible;"/>
			</clipPath>
			<g style="clip-path:url(#SVGID_00000087373927675551099790000007937259609024366992_);">
				<g>
					<path class="st2" d="M36.3,113.3c0.2-11.2-0.6-27.8-0.6-27.8s-6.1-7.4-9,0.1c-2.2,5.7-2.4,20.6-2.4,27.7
						C24.3,113.3,36.3,113.3,36.3,113.3z"/>
					<path class="st2" d="M36.4,112.2c0.1-11.2-0.6-26.7-0.6-26.7s-6.1-7.4-9,0.1c-2.1,5.3-2.4,18.7-2.4,26.2
						C28.2,112.8,32.6,113.4,36.4,112.2z"/>
				</g>
				<path class="st3" d="M35.6,106c1-11.7,2.5-41.3,2.5-41.3s-8.4,0.2-11.4,7.8c-2.1,5.4-4.8,19.8-5.3,28.3
					C24.8,103.7,30.7,106,35.6,106z"/>
				<path class="st4" d="M72.4,113.3C71.9,101.6,71.2,89,71.2,89s6-9.5,3.1-14.4c-0.5-0.8-7.7-6.2-8.4-6.5
					c-5.2-2.9-14.5-5.3-14.5-5.3S39.1,61,35.5,66c0,0-6.4,9.3-7.3,26.1c-0.2,4.5-0.3,13.1-0.2,21.2H72.4L72.4,113.3z"/>
				<path class="st3" d="M72.4,113.3C71.9,101.6,71.2,89,71.2,89s6-9.5,3.1-14.4c-0.1-0.2-1-0.9-2-1.8c-2.3,0-4.7,0.8-6.2,2.5
					c-1.9,2.1-2.2,5.3-2.5,8.1c-0.4,3.7-0.7,7.4-0.9,11.1c-0.2,4.2-0.3,8.5-0.6,12.7c-0.1,2-0.2,4.1-0.6,6.1L72.4,113.3L72.4,113.3z
					"/>
				<path class="st3" d="M36.2,76.3c-0.2,0.5-0.4,1-0.6,1.5c0.4,1.8,0.8,3.5,1.3,5.3c2.9-2.2,6-4.3,8.7-6.8c0.3-0.2,0.7-0.1,0.8,0.2
					c0.5,1.4,1.3,2.5,2.1,3.7c0.8,1.3,1.6,2.7,2.4,4.1c0,0,0,0.1,0.1,0.1c1.9-1.4,3.9-2.9,5.8-4.3c2.4-1.8,4.8-3.6,7.3-5.4
					c1-0.7,2.1-1.6,3.2-2.2c0.9-0.4,1.8,0,2.6,0.4c1.9,0.8,3.4,2.1,5,3.3c-0.1-0.6-0.3-1.1-0.6-1.6c-0.5-0.8-7.7-6.2-8.4-6.5
					c-5.2-2.9-14.5-5.3-14.5-5.3s-3.5-0.5-7.3-0.2c-0.5,0.7-1,1.3-1.5,2C40.1,68.3,37.9,72.2,36.2,76.3z"/>
				<polygon class="st4" points="46.6,74.7 40.1,79.7 38.1,73.1 42.7,64.8 48.9,61.8 				"/>
				<g>
					<path class="st2" d="M46.5,58.8c0,0,0.9,9.3-0.8,11.8s1.2,6.3,5.7,4.6c4.4-1.8,7.4-5.8,7.6-9.7c0.2-3.8,0-11.5,0-11.5
						L46.5,58.8z"/>
					<path class="st2" d="M46.7,66.3c2.6,0.1,5.2-0.4,7.5-1.5c1.7-0.8,3.4-1.8,4.9-3c0-3.7-0.1-7.9-0.1-7.9l-12.5,4.8
						C46.5,58.8,46.9,62.8,46.7,66.3z"/>
					<path class="st2" d="M58.5,60.6c2.8-2.5,4.9-5.8,7.3-8.6c0.4-0.5,0.8-1,1.3-1.5c0.5-2.9,1-5.7,1.4-8.6c0-0.1,0-0.2-0.1-0.2
						c0.1-0.6,0.2-1.3,0.2-1.9c0.2-1.5,0.5-2.9,0.3-4.4c-0.1-1.1-0.3-2.2-0.6-3.3c-1.3-4.4-4.2-8.3-8.1-10.7
						c-4.3-2.7-9.4-3.2-14.3-2.4c-2.7,0.4-5.3,1.3-7.8,2.6c-2.3,1.2-4.6,2.6-6.2,4.6c-0.8,1-1.4,2.1-1.7,3.4
						c-0.3,1.1-0.4,2.3-0.5,3.4c-0.1,0.5-0.1,1-0.2,1.5v0.1c0,0.1,0,0.3,0,0.4c0,0.4-0.1,0.8-0.1,1.2c0,0.7,0,1.5,0.3,2.2
						c0.2,1.3,0.5,2.5,0.7,3.7c0.6,2.7,1,5.4,1.6,8c0.3,1.3,0.6,2.6,0.9,3.8c0.3,1,0.6,2,1.3,2.8c0.7,1,8.2,8.3,10.1,8.5
						c2.4,0.2,4.7-0.6,6.9-1.4c2.4-0.9,4.7-1.9,7-3.2C58.4,60.7,58.5,60.6,58.5,60.6z"/>
				</g>
				<path class="st4" d="M46.6,74.7l4.7,7.6c0,0,15-10,15.6-14.1l-6.7-7.8L46.6,74.7z"/>
				<path class="st5" d="M71.4,33.3c0-2.6-0.2-5.2-0.9-7.6c-0.7-2.4-1.9-4.6-3.9-6.2c-2.1-1.8-4.7-3.1-7.3-3.9
					c-5.4-1.6-11.2-1.2-16.4,0.6c-3.3,1.1-6.5,2.6-9.4,4.5c-1.5,0.9-2.9,2-4.2,3.2c-0.6,0.6-1.2,1.2-1.8,1.9
					c-0.3,0.4-0.7,0.8-0.8,1.2l-0.1,0.1c-1,1.2-1.4,2.6-1.2,4.1c0.3,1.6,1,3.2,1.8,4.7c0.4,0.8,0.9,1.6,1.4,2.3
					c0.4,0.6,0.9,1.1,1.3,1.7c0.7-1.3,2.3-5.1,2.5-5.7c0.2-0.5,0.3-1,0.5-1.6c0,0.1,0.1,0.1,0.1,0.2c0.6,0.7,1.3,1.3,2.1,1.8
					c1.8,1.2,3.9,1.9,6,2.4c4.5,1.1,9.4,1.6,13.9,0.4c0.3-0.1,0.5-0.2,0.8-0.2c0.1,0.1,0.3,0.2,0.4,0.4c0.2,0.5,0.5,0.9,0.7,1.4
					c0.6,1.4,1.3,2.8,2,4.2c0.5,1.2,0.9,2.4,1.4,3.6c0.2,0.5,0.4,1,0.5,1.5c0,0.1,0,0.1,0,0.2c0.2-0.9,0.5-1.8,0.9-2.6
					c0.6-1.4,1.9-4,3.9-3.3c1.9,0.7,1.4,3.8,1.1,5.3c-0.2,1-0.5,1.9-0.9,2.8c-0.7,1.4-1.8,2.4-3,3.3c-1.8,1.3-2,3.6-2.3,5.7
					c0.1-0.1,0.2-0.2,0.3-0.3c0.1,0,0.4,0,0.5-0.2c0.6-0.9,1.6-1.5,2.4-2.2c0.2-0.2,0.3-0.3,0.5-0.5c1.9-1.4,3.7-3,5-5.1
					c1.6-2.6,2-5.9,2.2-8.9C71.5,39.4,71.5,36.3,71.4,33.3z"/>
				<g>
					<path class="st2" d="M78.9,113.3c0.2-11.2-0.6-27.8-0.6-27.8s-6.1-7.4-9,0.1c-2.2,5.7-2.4,20.6-2.4,27.7H78.9z"/>
					<path class="st2" d="M78.9,112.2c0.1-11.2-0.6-26.7-0.6-26.7s-6.1-7.4-9,0.1c-2.1,5.3-2.4,18.7-2.4,26.2
						C70.7,112.8,75.1,113.4,78.9,112.2z"/>
					<path class="st3" d="M64,108.9c3.7,1.3,9,2,12.9,1.5c1.8-0.2,3.7-0.7,5.3-1.5c0.3-0.2-1.3-22.1-3.1-27.5
						c-1.1-3.2-4.6-8.6-8.6-7.7c-2.1,0.5-3.4,2.8-4.2,4.6C65.3,80.6,62.7,108.5,64,108.9z"/>
				</g>
			</g>
		</g>
	</g>
</g>
</svg>
